<?xml version="1.0" ?><!DOCTYPE svg  PUBLIC '-//W3C//DTD SVG 1.1//EN'  'http://www.w3.org/Graphics/SVG/1.1/DTD/svg11.dtd'><svg enable-background="new 0 0 91 91" id="Layer_1" version="1.1" viewBox="0 0 91 91" xml:space="preserve" xmlns="http://www.w3.org/2000/svg" xmlns:xlink="http://www.w3.org/1999/xlink"><g fill="black"><g><path d="M44.014,90.732c10.152,0,20.162-3.461,27.508-10.471c0.086-0.082,0.156-0.174,0.227-0.266    c0.744-0.59,1.209-1.268,1.471-1.789c2.109-4.229-0.893-11.652-9.166-22.686c0.236-2.055,0.459-4.145,0.68-6.217    c0.563-5.304,1.145-10.759,1.91-15.121c4.729-0.578,8.408-4.611,8.408-9.494c0-5.279-4.297-9.573-9.576-9.573    c-5.125,0-9.309,4.05-9.551,9.116c-1.324,0.156-3.439,0.391-5.969,0.669C45.75,25.366,40.4,25.956,35.15,26.58    c-5.27-3.869-10.42-6.831-14.938-8.237c-1.805-0.561-3.352-0.834-4.73-0.834c-2.686,0-4.209,1.063-5.074,2.129    c-0.01,0.013-0.023,0.022-0.035,0.036c-0.008,0.01-0.014,0.021-0.021,0.03c-0.066,0.083-0.125,0.163-0.184,0.244    C-1.676,35.426-5.299,59.35,13.242,78.203C21.422,86.518,32.805,90.732,44.014,90.732z M60.91,33.103    c0.246,0.133,0.498,0.253,0.756,0.364c-0.781,4.504-1.365,9.981-1.93,15.308c-0.041,0.383-0.082,0.77-0.123,1.154    c-2.246-2.678-4.684-5.39-7.24-8.048C55.633,38.497,58.832,35.183,60.91,33.103z M65.475,20.142c2.51,0,4.551,2.04,4.551,4.548    s-2.041,4.547-4.551,4.547c-2.508,0-4.547-2.039-4.547-4.547S62.967,20.142,65.475,20.142z M50.506,29.897    c2.977-0.328,5.232-0.578,6.512-0.734c0.082,0.157,0.176,0.308,0.268,0.459c-2.102,2.108-5.244,5.363-8.453,8.691    c-2.631-2.566-5.348-5.036-8.082-7.326C44.268,30.584,47.652,30.211,50.506,29.897z M18.721,23.14    c2.701,0.841,5.725,2.362,8.91,4.372c-1.883,0.246-3.666,0.491-5.262,0.729c-1.373,0.204-2.32,1.482-2.115,2.855    c0.186,1.246,1.258,2.143,2.482,2.143c0.121,0,0.246-0.009,0.371-0.027c3.043-0.453,6.768-0.934,10.643-1.402    c3.859,2.963,7.807,6.431,11.592,10.127c-2.914,3.023-5.705,5.907-7.52,7.724c-0.982,0.98-0.982,2.572,0,3.553    c0.49,0.49,1.133,0.736,1.775,0.736c0.645,0,1.287-0.246,1.777-0.736c1.828-1.826,4.604-4.695,7.506-7.706    c3.629,3.776,7.023,7.683,9.943,11.442c-0.439,3.604-0.928,6.98-1.527,9.697c-0.301,1.355,0.555,2.697,1.91,2.996    c0.182,0.041,0.365,0.061,0.545,0.061c1.152,0,2.191-0.799,2.451-1.971c0.328-1.488,0.621-3.154,0.893-4.914    c6.918,10.227,5.689,13.018,5.627,13.145c-0.15,0.299-0.945,0.322-1.186,0.322c-0.57,0-1.25-0.096-2.021-0.285    c-8.754-2.139-23.092-13.01-35.68-27.051c-13.242-14.775-16.602-23.81-15.607-26.034c0.141-0.315,0.76-0.382,1.254-0.382    C16.336,22.534,17.426,22.738,18.721,23.14z M10.221,29.156c3.055,8.183,11.467,18.233,15.873,23.147    C38.938,66.629,53.227,77.5,63.029,80.506c-13.867,8.66-34.033,6.543-46.205-5.826C2.691,60.309,3.123,42.583,10.221,29.156z"/><path d="M61.871,3.22v5.873c0,1.388,1.125,2.513,2.514,2.513c1.387,0,2.512-1.125,2.512-2.513V3.22    c0-1.388-1.125-2.513-2.512-2.513C62.996,0.708,61.871,1.833,61.871,3.22z"/><path d="M82.598,10.15c1.006-0.958,1.043-2.548,0.086-3.552c-0.955-1.005-2.547-1.043-3.553-0.086l-4.301,4.1    c-1.006,0.958-1.043,2.549-0.086,3.553c0.494,0.518,1.156,0.779,1.818,0.779c0.623,0,1.248-0.23,1.734-0.693L82.598,10.15z"/><path d="M88.098,23.638h-8.207c-1.389,0-2.514,1.125-2.514,2.513s1.125,2.513,2.514,2.513h8.207c1.389,0,2.514-1.125,2.514-2.513    S89.486,23.638,88.098,23.638z"/></g></g></svg>